<?xml version="1.0" encoding="iso-8859-1"?>
<!-- Generator: Adobe Illustrator 19.1.0, SVG Export Plug-In . SVG Version: 6.00 Build 0)  -->
<svg version="1.1" id="Layer_1" xmlns="http://www.w3.org/2000/svg" xmlns:xlink="http://www.w3.org/1999/xlink" x="0px" y="0px"
	 viewBox="0 0 122.75 42.75" style="enable-background:new 0 0 122.75 42.75;" xml:space="preserve">
<g>
	<circle style="fill:#BDC3C7;" cx="8.094" cy="27.75" r="0.812"/>
	<circle style="fill:#BDC3C7;" cx="7.748" cy="26.291" r="0.466"/>
	<circle style="fill:#FFFFFF;" cx="9.064" cy="24.483" r="1.479"/>
	<circle style="fill:#BDC3C7;" cx="13.861" cy="26.179" r="1.479"/>
	<circle style="fill:#FFFFFF;" cx="8.811" cy="26.543" r="0.364"/>
	<circle style="fill:#FFFFFF;" cx="11.742" cy="23.319" r="0.979"/>
	<circle style="fill:#BDC3C7;" cx="29.206" cy="25.243" r="1.516"/>
	<circle style="fill:#BDC3C7;" cx="30.722" cy="27.27" r="0.466"/>
	<circle style="fill:#BDC3C7;" cx="11.742" cy="26.804" r="0.46"/>
	<circle style="fill:#BDC3C7;" cx="27.039" cy="26.804" r="0.625"/>
	<circle style="fill:#FFFFFF;" cx="9.694" cy="21.237" r="1.479"/>
	<circle style="fill:#FFFFFF;" cx="10.006" cy="18.512" r="0.943"/>
	<circle style="fill:#BDC3C7;" cx="11.283" cy="25.461" r="0.74"/>
	<circle style="fill:#FFFFFF;" cx="14.508" cy="23.004" r="1.479"/>
	<circle style="fill:#FFFFFF;" cx="19.63" cy="11.783" r="1.479"/>
	<circle style="fill:#FFFFFF;" cx="24.263" cy="12.276" r="1.479"/>
	<circle style="fill:#FFFFFF;" cx="18.151" cy="9.579" r="0.74"/>
	<circle style="fill:#FFFFFF;" cx="19.988" cy="9.579" r="0.466"/>
	<circle style="fill:#FFFFFF;" cx="22.089" cy="10.303" r="0.979"/>
	<circle style="fill:#BDC3C7;" cx="25.04" cy="26.441" r="0.979"/>
	<circle style="fill:#BDC3C7;" cx="10.043" cy="27.27" r="0.979"/>
	<circle style="fill:#FFFFFF;" cx="16.29" cy="10.867" r="0.751"/>
	<circle style="fill:#FFFFFF;" cx="12.095" cy="20.977" r="0.812"/>
	<circle style="fill:#FFFFFF;" cx="11.749" cy="19.518" r="0.466"/>
	<circle style="fill:#FFFFFF;" cx="13.064" cy="17.71" r="1.479"/>
	<circle style="fill:#FFFFFF;" cx="16.745" cy="20.744" r="1.479"/>
	<circle style="fill:#FFFFFF;" cx="15.564" cy="16.368" r="0.801"/>
	<circle style="fill:#FFFFFF;" cx="13.695" cy="20.977" r="0.46"/>
	<circle style="fill:#FFFFFF;" cx="13.235" cy="14.464" r="1.479"/>
	<circle style="fill:#FFFFFF;" cx="14.007" cy="11.739" r="0.943"/>
	<circle style="fill:#FFFFFF;" cx="14.508" cy="19.757" r="0.74"/>
	<circle style="fill:#FFFFFF;" cx="17.847" cy="17.877" r="0.931"/>
	<circle style="fill:#FFFFFF;" cx="10.543" cy="16.231" r="0.979"/>
	<circle style="fill:#FFFFFF;" cx="15.655" cy="18.211" r="0.634"/>
	<circle style="fill:#FFFFFF;" cx="15.877" cy="12.753" r="0.758"/>
	<circle style="fill:#FFFFFF;" cx="21.851" cy="12.276" r="0.466"/>
	<circle style="fill:#BDC3C7;" cx="16.018" cy="26.804" r="0.625"/>
	<circle style="fill:#FFFFFF;" cx="16.635" cy="24.974" r="0.979"/>
	<circle style="fill:#FFFFFF;" cx="17.411" cy="11.995" r="0.233"/>
	<circle style="fill:#FFFFFF;" cx="26.019" cy="23.726" r="1.516"/>
	<circle style="fill:#FFFFFF;" cx="18.151" cy="14.984" r="1.596"/>
	<circle style="fill:#FFFFFF;" cx="15.655" cy="14.464" r="0.233"/>
	<circle style="fill:#FFFFFF;" cx="28.669" cy="22.477" r="0.979"/>
	<circle style="fill:#FFFFFF;" cx="23.595" cy="24.974" r="0.812"/>
	<circle style="fill:#FFFFFF;" cx="18.594" cy="23.004" r="0.979"/>
	<circle style="fill:#FFFFFF;" cx="20.455" cy="19.984" r="1.773"/>
	<circle style="fill:#FFFFFF;" cx="23.595" cy="15.713" r="1.479"/>
	<circle style="fill:#BDC3C7;" cx="18.891" cy="25.962" r="1.013"/>
	<circle style="fill:#FFFFFF;" cx="21.11" cy="14.233" r="0.979"/>
	<circle style="fill:#FFFFFF;" cx="26.414" cy="14.464" r="0.979"/>
	<circle style="fill:#FFFFFF;" cx="20.726" cy="16.947" r="0.979"/>
	<circle style="fill:#FFFFFF;" cx="26.866" cy="17.365" r="1.652"/>
	<circle style="fill:#BDC3C7;" cx="21.384" cy="26.201" r="0.979"/>
	<circle style="fill:#FFFFFF;" cx="21.384" cy="23.457" r="1.236"/>
	<circle style="fill:#FFFFFF;" cx="22.364" cy="17.926" r="0.634"/>
	<circle style="fill:#FFFFFF;" cx="23.595" cy="23.187" r="0.71"/>
	<circle style="fill:#BDC3C7;" cx="23.197" cy="26.885" r="0.581"/>
	<circle style="fill:#FFFFFF;" cx="19.522" cy="24.299" r="0.246"/>
	<circle style="fill:#FFFFFF;" cx="24.146" cy="18.297" r="0.667"/>
	<circle style="fill:#FFFFFF;" cx="28.669" cy="19.944" r="0.979"/>
	<circle style="fill:#FFFFFF;" cx="23.986" cy="20.654" r="1.37"/>
	<circle style="fill:#FFFFFF;" cx="26.414" cy="19.944" r="0.667"/>
	<circle style="fill:#FFFFFF;" cx="27.039" cy="21.437" r="0.667"/>
	<g>
		<circle style="fill:#E57E25;" cx="7.748" cy="13.927" r="0.943"/>
		<circle style="fill:#E57E25;" cx="5.868" cy="12.294" r="0.233"/>
		<circle style="fill:#E57E25;" cx="7.04" cy="11.995" r="0.701"/>
		<circle style="fill:#E57E25;" cx="6.811" cy="10.61" r="0.471"/>
		<circle style="fill:#E57E25;" cx="5.868" cy="11.338" r="0.471"/>
		<circle style="fill:#E57E25;" cx="5.706" cy="10.139" r="0.471"/>
		<circle style="fill:#E57E25;" cx="8.691" cy="15.213" r="0.471"/>
		<circle style="fill:#E57E25;" cx="6.339" cy="13.211" r="0.471"/>
		<circle style="fill:#E57E25;" cx="6.448" cy="9.667" r="0.271"/>
		<circle style="fill:#E57E25;" cx="7.974" cy="12.527" r="0.233"/>
		<circle style="fill:#E57E25;" cx="7.452" cy="15.684" r="0.647"/>
		<circle style="fill:#E57E25;" cx="8.448" cy="16.231" r="0.271"/>
		<circle style="fill:#E57E25;" cx="7.04" cy="16.947" r="0.471"/>
		<circle style="fill:#E57E25;" cx="6.806" cy="14.87" r="0.251"/>
		<circle style="fill:#E57E25;" cx="8.094" cy="17.21" r="0.471"/>
		<circle style="fill:#E57E25;" cx="7.592" cy="18.717" r="0.628"/>
		<circle style="fill:#E57E25;" cx="6.339" cy="14.233" r="0.251"/>
		<circle style="fill:#E57E25;" cx="5.629" cy="8.607" r="0.703"/>
		<circle style="fill:#E57E25;" cx="5.205" cy="7.231" r="0.459"/>
		<circle style="fill:#E57E25;" cx="4.855" cy="6.086" r="0.378"/>
		<circle style="fill:#E57E25;" cx="4.855" cy="5.255" r="0.233"/>
		<circle style="fill:#E57E25;" cx="5.205" cy="4.364" r="0.326"/>
		<circle style="fill:#E57E25;" cx="5.397" cy="3.454" r="0.251"/>
		<circle style="fill:#E57E25;" cx="5.534" cy="2.676" r="0.137"/>
		<circle style="fill:#E57E25;" cx="5.397" cy="5.022" r="0.137"/>
		<circle style="fill:#E57E25;" cx="5.397" cy="5.488" r="0.201"/>
	</g>
	<g>
		<circle style="fill:#E57E25;" cx="30.383" cy="13.853" r="0.943"/>
		<circle style="fill:#E57E25;" cx="32.264" cy="12.219" r="0.233"/>
		<circle style="fill:#E57E25;" cx="31.091" cy="11.92" r="0.701"/>
		<circle style="fill:#E57E25;" cx="31.321" cy="10.535" r="0.471"/>
		<circle style="fill:#E57E25;" cx="32.264" cy="11.263" r="0.471"/>
		<circle style="fill:#E57E25;" cx="32.426" cy="10.064" r="0.471"/>
		<circle style="fill:#E57E25;" cx="29.44" cy="15.138" r="0.471"/>
		<circle style="fill:#E57E25;" cx="31.792" cy="13.136" r="0.471"/>
		<circle style="fill:#E57E25;" cx="31.683" cy="9.593" r="0.271"/>
		<circle style="fill:#E57E25;" cx="30.158" cy="12.453" r="0.233"/>
		<circle style="fill:#E57E25;" cx="30.679" cy="15.609" r="0.647"/>
		<circle style="fill:#E57E25;" cx="29.684" cy="16.156" r="0.271"/>
		<circle style="fill:#E57E25;" cx="31.091" cy="16.872" r="0.471"/>
		<circle style="fill:#E57E25;" cx="31.326" cy="14.795" r="0.251"/>
		<circle style="fill:#E57E25;" cx="30.037" cy="17.135" r="0.471"/>
		<circle style="fill:#E57E25;" cx="30.539" cy="18.642" r="0.628"/>
		<circle style="fill:#E57E25;" cx="31.792" cy="14.159" r="0.251"/>
		<circle style="fill:#E57E25;" cx="32.503" cy="8.532" r="0.703"/>
		<circle style="fill:#E57E25;" cx="32.926" cy="7.156" r="0.459"/>
		<circle style="fill:#E57E25;" cx="33.277" cy="6.011" r="0.378"/>
		<circle style="fill:#E57E25;" cx="33.277" cy="5.181" r="0.233"/>
		<circle style="fill:#E57E25;" cx="32.926" cy="4.289" r="0.326"/>
		<circle style="fill:#E57E25;" cx="32.735" cy="3.379" r="0.251"/>
		<circle style="fill:#E57E25;" cx="32.597" cy="2.601" r="0.137"/>
		<circle style="fill:#E57E25;" cx="32.735" cy="4.947" r="0.137"/>
		<circle style="fill:#E57E25;" cx="32.735" cy="5.414" r="0.201"/>
	</g>
	<circle style="fill:#E57E25;" cx="26.424" cy="34.878" r="0.634"/>
	<circle style="fill:#E57E25;" cx="25.295" cy="34.241" r="0.317"/>
	<circle style="fill:#E57E25;" cx="27.462" cy="36.149" r="0.634"/>
	<circle style="fill:#E57E25;" cx="25.875" cy="36.225" r="0.634"/>
	<circle style="fill:#E57E25;" cx="23.62" cy="33.127" r="0.317"/>
	<circle style="fill:#E57E25;" cx="23.851" cy="34.399" r="0.634"/>
	<circle style="fill:#E57E25;" cx="22.638" cy="32.807" r="0.317"/>
	<circle style="fill:#E57E25;" cx="22.001" cy="33.757" r="0.634"/>
	<circle style="fill:#E57E25;" cx="25.131" cy="35.152" r="0.395"/>
	<circle style="fill:#E57E25;" cx="20.501" cy="33.119" r="0.634"/>
	<circle style="fill:#E57E25;" cx="26.772" cy="37.02" r="0.317"/>
	<circle style="fill:#E57E25;" cx="11.3" cy="34.806" r="0.317"/>
	<circle style="fill:#E57E25;" cx="12.658" cy="34.968" r="0.634"/>
	<circle style="fill:#E57E25;" cx="13.789" cy="34.336" r="0.317"/>
	<circle style="fill:#E57E25;" cx="11.614" cy="36.235" r="0.634"/>
	<circle style="fill:#E57E25;" cx="13.201" cy="36.318" r="0.634"/>
	<circle style="fill:#E57E25;" cx="15.47" cy="33.23" r="0.317"/>
	<circle style="fill:#E57E25;" cx="15.233" cy="34.501" r="0.634"/>
	<circle style="fill:#E57E25;" cx="16.921" cy="33.111" r="0.317"/>
	<circle style="fill:#E57E25;" cx="16.901" cy="34.222" r="0.634"/>
	<circle style="fill:#E57E25;" cx="13.949" cy="35.249" r="0.395"/>
	<circle style="fill:#E57E25;" cx="18.588" cy="33.237" r="0.634"/>
	<circle style="fill:#E57E25;" cx="12.3" cy="37.109" r="0.317"/>
	<circle style="fill:#E57E25;" cx="14.786" cy="36.161" r="0.634"/>
	<circle style="fill:#E57E25;" cx="24.322" cy="36.142" r="0.634"/>
	<circle style="fill:#E57E25;" cx="25.872" cy="37.457" r="0.395"/>
	<circle style="fill:#E57E25;" cx="22.633" cy="34.71" r="0.317"/>
	<circle style="fill:#E57E25;" cx="11.281" cy="37.818" r="0.634"/>
	<circle style="fill:#E57E25;" cx="27.051" cy="38.094" r="0.634"/>
</g>
<g>
	<path style="fill:#FFFFFF;" d="M60.297,27.972c-0.303,0.135-0.597,0.312-0.881,0.533c-0.285,0.221-0.572,0.463-0.863,0.726
		s-0.592,0.54-0.904,0.831s-0.649,0.563-1.012,0.813c-0.361,0.251-0.756,0.491-1.183,0.719c-0.427,0.229-0.898,0.429-1.415,0.601
		c-0.516,0.172-1.085,0.309-1.707,0.41c-0.621,0.102-1.31,0.152-2.063,0.152c-0.835,0-1.588-0.167-2.26-0.499
		c-0.671-0.333-1.244-0.781-1.721-1.345s-0.843-1.22-1.1-1.968c-0.256-0.748-0.385-1.533-0.385-2.357
		c0-0.573,0.062-1.188,0.186-1.845c0.124-0.657,0.302-1.327,0.533-2.008c0.232-0.682,0.516-1.362,0.85-2.042
		c0.334-0.679,0.713-1.33,1.136-1.952c0.424-0.623,0.89-1.2,1.396-1.733s1.049-0.997,1.624-1.392
		c0.575-0.396,1.181-0.705,1.818-0.929c0.637-0.224,1.299-0.336,1.985-0.336c0.445,0,0.896,0.079,1.354,0.236
		c0.457,0.158,0.868,0.401,1.233,0.729c0.365,0.328,0.663,0.742,0.896,1.243c0.231,0.501,0.348,1.092,0.348,1.772
		c0,0.458-0.072,0.92-0.218,1.387c-0.146,0.467-0.345,0.915-0.599,1.345c-0.254,0.43-0.552,0.834-0.896,1.211
		c-0.343,0.377-0.713,0.704-1.108,0.979c-0.396,0.275-0.807,0.494-1.233,0.654c-0.427,0.161-0.854,0.241-1.28,0.241
		c-0.563,0-0.983-0.076-1.262-0.228c-0.278-0.151-0.418-0.369-0.418-0.654c0-0.049-0.001-0.108-0.005-0.176
		c-0.003-0.068-0.004-0.139-0.004-0.213c0-0.111,0.006-0.227,0.019-0.348c0.012-0.12,0.037-0.23,0.074-0.329
		c0.037-0.099,0.091-0.179,0.162-0.241c0.071-0.062,0.168-0.093,0.292-0.093c0.074,0,0.14,0.011,0.195,0.032
		c0.056,0.022,0.117,0.045,0.186,0.07c0.067,0.025,0.149,0.048,0.245,0.07c0.097,0.021,0.219,0.032,0.367,0.032
		c0.396,0,0.796-0.086,1.201-0.26c0.405-0.173,0.77-0.417,1.095-0.733c0.324-0.315,0.591-0.691,0.798-1.127
		c0.207-0.436,0.311-0.917,0.311-1.442c0-0.278-0.037-0.543-0.111-0.793c-0.074-0.251-0.194-0.47-0.361-0.659
		c-0.167-0.188-0.382-0.34-0.646-0.454c-0.263-0.115-0.583-0.172-0.96-0.172c-0.445,0-0.88,0.098-1.304,0.295
		c-0.423,0.196-0.83,0.463-1.22,0.8s-0.759,0.736-1.108,1.198c-0.35,0.462-0.673,0.956-0.97,1.483
		c-0.297,0.527-0.564,1.076-0.803,1.647c-0.237,0.571-0.44,1.14-0.607,1.708c-0.167,0.568-0.295,1.118-0.385,1.652
		c-0.09,0.533-0.135,1.024-0.135,1.474c0,0.66,0.079,1.235,0.236,1.725c0.158,0.49,0.382,0.898,0.673,1.225
		c0.291,0.327,0.646,0.57,1.067,0.73c0.42,0.16,0.894,0.24,1.419,0.24c0.655,0,1.267-0.085,1.832-0.254
		c0.566-0.17,1.105-0.393,1.619-0.668s1.01-0.586,1.489-0.932s0.959-0.693,1.438-1.042c0.479-0.349,0.969-0.682,1.466-1
		c0.498-0.317,1.025-0.584,1.582-0.802V27.972z"/>
	<path style="fill:#FFFFFF;" d="M61.16,30.975c-0.333,0-0.643-0.145-0.929-0.434c-0.286-0.29-0.536-0.677-0.749-1.165
		c-0.212-0.487-0.379-1.052-0.499-1.694s-0.18-1.316-0.18-2.022c0-0.607,0.089-1.417,0.268-2.431c0.178-1.013,0.268-1.52,0.268-1.52
		c0,0,0.135-0.506,0.405-1.518c0.27-1.012,0.541-1.824,0.812-2.436s0.566-1.183,0.886-1.713c0.318-0.531,0.652-0.994,1.003-1.389
		c0.35-0.395,0.715-0.705,1.096-0.93s0.769-0.338,1.162-0.338c0.286,0,0.522,0.055,0.709,0.164s0.333,0.253,0.44,0.433
		c0.106,0.179,0.181,0.382,0.225,0.609c0.043,0.227,0.064,0.458,0.064,0.693c0,0.585-0.069,1.181-0.207,1.787
		c-0.139,0.606-0.325,1.216-0.56,1.829s-0.507,1.227-0.815,1.842c-0.309,0.616-0.63,1.227-0.964,1.833
		c-0.335,0.606-0.671,1.204-1.009,1.791c-0.337,0.588-0.648,1.163-0.935,1.724c-0.03,0.062-0.063,0.144-0.098,0.243
		c-0.034,0.1-0.066,0.208-0.098,0.323c-0.03,0.116-0.062,0.239-0.093,0.37c-0.031,0.131-0.056,0.259-0.074,0.384v0.131
		c0,0.162,0.017,0.32,0.051,0.473c0.034,0.152,0.076,0.29,0.126,0.412s0.103,0.218,0.158,0.29s0.108,0.107,0.158,0.107
		c0.12,0,0.258-0.025,0.413-0.075s0.319-0.117,0.494-0.201c0.174-0.084,0.353-0.181,0.536-0.29s0.361-0.22,0.532-0.332
		c0.399-0.262,0.817-0.564,1.254-0.908l0.819,1.956c-0.566,0.376-1.127,0.711-1.682,1.005c-0.242,0.124-0.492,0.246-0.75,0.366
		s-0.518,0.228-0.778,0.322c-0.262,0.094-0.516,0.169-0.765,0.225C61.609,30.948,61.377,30.975,61.16,30.975z M61.169,23.621
		c0.279-0.499,0.575-1.061,0.889-1.684s0.61-1.266,0.89-1.927c0.278-0.661,0.521-1.321,0.726-1.979
		c0.205-0.658,0.335-1.271,0.391-1.838c0-0.181-0.004-0.335-0.013-0.463s-0.037-0.192-0.084-0.192c-0.17,0-0.353,0.118-0.549,0.353
		c-0.196,0.235-0.394,0.553-0.59,0.954c-0.196,0.401-0.431,1.053-0.703,1.957s-0.409,1.355-0.409,1.355c0,0-0.083,0.419-0.249,1.258
		C61.3,22.252,61.201,22.988,61.169,23.621z"/>
	<path style="fill:#FFFFFF;" d="M71.059,22.329c0,0.167-0.006,0.395-0.017,0.682c-0.011,0.288-0.048,0.602-0.111,0.942
		s-0.141,0.752-0.229,1.235c-0.09,0.483-0.164,0.882-0.224,1.198c-0.059,0.316-0.11,0.593-0.154,0.83s-0.065,0.409-0.065,0.517
		c0,0.174,0.002,0.333,0.008,0.479c0.005,0.146,0.021,0.273,0.048,0.382c0.026,0.108,0.068,0.192,0.124,0.251
		c0.057,0.059,0.139,0.088,0.245,0.088c0.136,0,0.302-0.034,0.496-0.103c0.195-0.068,0.402-0.16,0.622-0.274
		c0.22-0.115,0.443-0.246,0.673-0.391c0.229-0.146,0.446-0.3,0.653-0.461c0.207-0.161,0.396-0.321,0.566-0.479
		s0.308-0.306,0.413-0.442c0,0.205,0.001,0.391,0.004,0.559c0.003,0.167,0.005,0.327,0.005,0.479s0.002,0.309,0.005,0.47
		c0.003,0.162,0.005,0.342,0.005,0.54c-0.137,0.134-0.305,0.278-0.506,0.431c-0.201,0.152-0.424,0.305-0.668,0.458
		c-0.244,0.153-0.504,0.299-0.779,0.439s-0.552,0.264-0.83,0.371c-0.278,0.107-0.551,0.192-0.816,0.256s-0.512,0.096-0.738,0.096
		c-0.231,0-0.429-0.046-0.593-0.137s-0.306-0.22-0.425-0.384c-0.118-0.165-0.219-0.361-0.301-0.59s-0.153-0.483-0.214-0.764
		c-0.223,0.287-0.458,0.551-0.706,0.792c-0.248,0.241-0.5,0.45-0.757,0.627c-0.257,0.177-0.518,0.316-0.78,0.417
		c-0.264,0.101-0.519,0.151-0.767,0.151c-0.203,0-0.395-0.034-0.573-0.102c-0.178-0.068-0.337-0.182-0.476-0.343
		c-0.139-0.161-0.248-0.373-0.328-0.636c-0.08-0.263-0.12-0.589-0.12-0.978c0.007-0.81,0.068-1.431,0.186-1.864
		c0.186-0.631,0.358-1.572,0.519-2.822c0.017-0.091,0.04-0.216,0.069-0.375c0.028-0.158,0.072-0.33,0.132-0.516
		c0.059-0.186,0.131-0.374,0.218-0.566c0.086-0.191,0.188-0.365,0.306-0.52c0.117-0.154,0.256-0.281,0.413-0.38
		c0.158-0.099,0.335-0.151,0.533-0.158c0.328,0.016,0.562,0.069,0.705,0.16c0.143,0.09,0.214,0.203,0.214,0.336
		c-0.056,0.417-0.118,0.818-0.188,1.203s-0.14,0.772-0.21,1.163c-0.07,0.39-0.148,0.825-0.233,1.303
		c-0.086,0.478-0.155,0.861-0.207,1.15s-0.094,0.521-0.126,0.699c-0.031,0.178-0.048,0.271-0.048,0.277
		c0,0.115,0.011,0.225,0.033,0.33c0.021,0.105,0.054,0.2,0.098,0.282c0.043,0.083,0.099,0.15,0.167,0.201
		c0.068,0.051,0.149,0.077,0.242,0.077c0.137,0,0.276-0.036,0.419-0.108c0.143-0.073,0.276-0.178,0.4-0.316
		c0.131-0.126,0.245-0.29,0.345-0.491c0.1-0.195,0.174-0.422,0.224-0.68l1.022-5.056c0.03-0.148,0.151-0.274,0.363-0.375
		c0.212-0.103,0.452-0.153,0.721-0.153c0.305,0,0.547,0.056,0.726,0.167C70.97,22.014,71.059,22.156,71.059,22.329z"/>
	<path style="fill:#FFFFFF;" d="M72.823,27.474c0.347-0.3,0.628-0.55,0.845-0.75c0.216-0.2,0.433-0.433,0.649-0.699
		c0.216-0.266,0.388-0.483,0.515-0.652s0.276-0.369,0.45-0.6c0.173-0.231,0.383-0.514,0.631-0.849
		c0.247-0.334,0.568-0.752,0.965-1.252c0.08-0.113,0.17-0.222,0.269-0.329c0.099-0.106,0.209-0.201,0.329-0.286
		c0.121-0.084,0.254-0.153,0.399-0.207c0.146-0.053,0.308-0.08,0.487-0.08c0.297,0,0.525,0.033,0.687,0.099
		c0.161,0.065,0.278,0.146,0.353,0.239c0.074,0.094,0.117,0.192,0.13,0.295c0.013,0.104,0.019,0.192,0.019,0.268
		c0,0.15-0.059,0.315-0.176,0.497c-0.118,0.181-0.248,0.356-0.39,0.525c-0.143,0.169-0.277,0.324-0.404,0.464
		s-0.199,0.246-0.218,0.314c0,0.194,0.014,0.371,0.042,0.53c0.028,0.16,0.066,0.316,0.114,0.469
		c0.047,0.153,0.096,0.315,0.146,0.487c0.05,0.172,0.099,0.371,0.146,0.596c0.046,0.225,0.052,0.535,0.019,0.928
		c-0.034,0.394-0.052,0.791-0.052,1.191c0.223-0.15,0.463-0.286,0.72-0.408c0.256-0.122,0.523-0.249,0.802-0.38
		s0.564-0.276,0.858-0.436c0.294-0.159,0.589-0.352,0.886-0.577l0.01,2.101c-0.384,0.286-0.827,0.555-1.331,0.805
		c-0.505,0.25-1.034,0.471-1.591,0.662c-0.556,0.191-1.117,0.341-1.683,0.452c-0.566,0.11-1.103,0.166-1.609,0.166
		c-0.365,0-0.705-0.033-1.021-0.098s-0.593-0.167-0.831-0.306c-0.237-0.139-0.431-0.321-0.579-0.546
		c-0.148-0.225-0.238-0.497-0.27-0.816c-0.087,0.019-0.172,0.031-0.255,0.038c-0.084,0.006-0.166,0.009-0.246,0.009
		c-0.099,0-0.191-0.003-0.278-0.009s-0.161-0.03-0.223-0.07s-0.111-0.106-0.148-0.197c-0.037-0.091-0.056-0.221-0.056-0.39
		c0-0.15,0.037-0.289,0.111-0.417c0.074-0.128,0.161-0.242,0.26-0.342s0.198-0.188,0.297-0.263S72.773,27.518,72.823,27.474z
		 M73.981,28.674c0.074,0,0.156,0.047,0.246,0.141c0.089,0.094,0.192,0.197,0.311,0.31c0.117,0.113,0.253,0.216,0.408,0.31
		c0.154,0.094,0.33,0.141,0.528,0.141c0.241,0,0.441-0.041,0.599-0.122c0.158-0.081,0.283-0.189,0.376-0.323
		s0.157-0.291,0.194-0.469c0.037-0.178,0.056-0.364,0.056-0.558c0-0.169-0.011-0.341-0.032-0.516
		c-0.021-0.175-0.019-0.393,0.01-0.652c0.027-0.26,0.021-0.459-0.019-0.6c-0.041-0.141-0.076-0.261-0.107-0.361L73.981,28.674z"/>
	<path style="fill:#FFFFFF;" d="M88.797,28.897c-0.595,0.347-1.124,0.649-1.588,0.909c-0.465,0.26-0.879,0.477-1.241,0.649
		c-0.362,0.173-0.684,0.303-0.966,0.39c-0.281,0.087-0.537,0.13-0.767,0.13c-0.467,0-0.879-0.142-1.236-0.427
		c-0.356-0.284-0.655-0.694-0.895-1.229c-0.24-0.535-0.42-1.183-0.54-1.943s-0.18-1.617-0.18-2.57c0-0.371,0.015-0.767,0.046-1.188
		c0.03-0.42,0.073-0.838,0.129-1.252c-0.188-0.027-0.332-0.053-0.435-0.078c-0.103-0.024-0.212-0.048-0.327-0.072
		c-0.115-0.024-0.262-0.05-0.438-0.077c-0.178-0.028-0.435-0.062-0.771-0.104c-0.149-0.021-0.265-0.06-0.346-0.119
		s-0.14-0.127-0.178-0.207c-0.037-0.079-0.059-0.162-0.065-0.248c-0.006-0.086-0.009-0.16-0.009-0.222
		c0-0.098,0.061-0.172,0.182-0.223c0.121-0.052,0.276-0.09,0.466-0.116c0.19-0.026,0.398-0.04,0.625-0.043
		c0.228-0.003,0.444-0.001,0.653,0.005c0.208,0.006,0.395,0.011,0.56,0.014c0.164,0.003,0.278-0.001,0.34-0.014
		c0.167-0.833,0.378-1.639,0.635-2.419c0.256-0.78,0.543-1.474,0.861-2.082c0.317-0.607,0.665-1.095,1.042-1.461
		c0.376-0.367,0.771-0.551,1.186-0.551c0.266,0,0.509,0.074,0.729,0.223c0.22,0.148,0.406,0.346,0.562,0.593
		c0.154,0.247,0.273,0.536,0.357,0.866c0.083,0.331,0.125,0.675,0.125,1.034c0,0.296-0.043,0.609-0.13,0.939
		c-0.087,0.33-0.204,0.666-0.353,1.008s-0.323,0.688-0.524,1.039c-0.201,0.351-0.413,0.699-0.636,1.043
		c0.056-0.021,0.148-0.024,0.279-0.012c0.13,0.013,0.279,0.021,0.45,0.026c0.17,0.005,0.354,0.01,0.552,0.015
		c0.197,0.005,0.39,0.011,0.575,0.017c0.186,0.006,0.358,0.013,0.52,0.019c0.16,0.006,0.293,0.013,0.398,0.019
		c0.124,0.007,0.214,0.076,0.27,0.207s0.083,0.296,0.083,0.496c0,0.231-0.062,0.419-0.186,0.564
		c-0.124,0.146-0.26,0.218-0.408,0.218h-3.566c-0.181,0.248-0.362,0.49-0.546,0.729c-0.183,0.238-0.353,0.453-0.508,0.645
		c-0.024,0.384-0.046,0.761-0.064,1.132c-0.007,0.161-0.013,0.326-0.019,0.496c-0.007,0.17-0.013,0.339-0.019,0.506
		c-0.007,0.167-0.011,0.328-0.014,0.482c-0.004,0.155-0.005,0.297-0.005,0.427c0,0.334,0.031,0.616,0.093,0.844
		c0.062,0.229,0.152,0.416,0.271,0.561c0.118,0.146,0.262,0.251,0.433,0.315c0.171,0.065,0.361,0.098,0.573,0.098
		c0.13,0,0.292-0.031,0.487-0.093c0.195-0.062,0.408-0.147,0.641-0.255c0.232-0.108,0.477-0.237,0.733-0.385
		s0.511-0.311,0.762-0.487c0.251-0.177,0.49-0.362,0.72-0.557c0.229-0.195,0.437-0.395,0.622-0.599V28.897z M85.828,17.149
		c0-0.068-0.005-0.143-0.014-0.227c-0.01-0.083-0.029-0.162-0.061-0.235s-0.079-0.136-0.145-0.185s-0.156-0.074-0.274-0.074
		c-0.162,0-0.325,0.141-0.489,0.424c-0.164,0.282-0.323,0.643-0.475,1.082c-0.152,0.439-0.296,0.923-0.429,1.451
		c-0.134,0.528-0.256,1.041-0.368,1.538c0.093,0.009,0.187,0.017,0.279,0.024c0.094,0.007,0.189,0.015,0.289,0.024
		c0.187-0.312,0.38-0.649,0.582-1.013c0.202-0.364,0.384-0.721,0.545-1.073c0.161-0.351,0.295-0.68,0.4-0.985
		S85.828,17.345,85.828,17.149z"/>
	<path style="fill:#FFFFFF;" d="M91.195,30.975c-0.577,0-1.083-0.107-1.516-0.321c-0.434-0.214-0.794-0.502-1.083-0.864
		s-0.506-0.781-0.649-1.256c-0.145-0.476-0.217-0.974-0.217-1.497c0-0.342,0.064-0.749,0.193-1.222s0.263-0.893,0.401-1.259
		c0.139-0.366,0.312-0.715,0.521-1.048c0.209-0.333,0.454-0.625,0.733-0.879c0.28-0.253,0.594-0.455,0.941-0.604
		c0.348-0.15,0.733-0.225,1.158-0.225c0.347,0,0.669,0.056,0.966,0.167c0.297,0.111,0.556,0.267,0.775,0.468
		s0.392,0.443,0.516,0.728s0.186,0.602,0.186,0.954c0,0.375-0.125,0.795-0.376,1.261c-0.251,0.465-0.544,0.865-0.879,1.197
		s-0.733,0.629-1.194,0.889c-0.462,0.26-0.963,0.463-1.502,0.608c0.093,0.164,0.185,0.3,0.274,0.409s0.182,0.193,0.275,0.254
		c0.093,0.061,0.19,0.103,0.293,0.127c0.103,0.024,0.213,0.036,0.331,0.036c0.371,0,0.762-0.072,1.173-0.218
		c0.411-0.145,0.812-0.327,1.202-0.544s0.757-0.455,1.104-0.712s0.641-0.5,0.882-0.73l1.196,1.216
		c-0.544,0.58-1.122,1.092-1.734,1.538c-0.267,0.191-0.553,0.379-0.858,0.564c-0.307,0.185-0.628,0.349-0.965,0.492
		c-0.337,0.143-0.687,0.258-1.049,0.344C91.934,30.932,91.566,30.975,91.195,30.975z M89.957,26.557c0.224,0,0.467-0.056,0.73-0.168
		s0.509-0.255,0.736-0.431c0.227-0.176,0.448-0.412,0.665-0.708c0.218-0.296,0.326-0.542,0.326-0.735
		c0-0.272-0.051-0.496-0.153-0.671s-0.229-0.263-0.377-0.263c-0.268,0-0.495,0.048-0.685,0.145
		c-0.189,0.097-0.348,0.223-0.476,0.376c-0.127,0.154-0.229,0.33-0.307,0.526c-0.078,0.196-0.168,0.44-0.271,0.73
		c-0.103,0.291-0.159,0.529-0.172,0.717S89.957,26.424,89.957,26.557z"/>
	<path style="fill:#FFFFFF;" d="M95.078,29.036c0-0.272,0.015-0.589,0.046-0.951c0.031-0.362,0.073-0.744,0.126-1.146
		c0.052-0.402,0.114-0.812,0.186-1.229c0.07-0.418,0.162-0.863,0.273-1.336c0.111-0.474,0.207-0.868,0.287-1.183
		s0.161-0.575,0.241-0.779c0.05-0.136,0.099-0.244,0.148-0.325c0.05-0.08,0.107-0.144,0.172-0.19
		c0.065-0.046,0.146-0.077,0.241-0.093c0.096-0.015,0.215-0.023,0.357-0.023c0.16,0,0.286,0.008,0.376,0.023
		c0.089,0.016,0.155,0.053,0.199,0.111c0.043,0.059,0.069,0.144,0.079,0.255c0.009,0.111,0.014,0.263,0.014,0.455
		c0,0.229-0.016,0.554-0.047,0.974c-0.031,0.421-0.04,0.789-0.027,1.104h0.102c0.124-0.247,0.278-0.572,0.464-0.974
		c0.186-0.402,0.381-0.736,0.585-1.002c0.204-0.266,0.436-0.49,0.695-0.672c0.26-0.183,0.56-0.274,0.9-0.274
		c0.117,0,0.231,0.02,0.343,0.06c0.111,0.041,0.209,0.098,0.293,0.172c0.083,0.074,0.149,0.166,0.199,0.273
		c0.049,0.108,0.074,0.231,0.074,0.367c0,0.105-0.016,0.252-0.047,0.441c-0.031,0.188-0.08,0.435-0.148,0.737
		c-0.068,0.303-0.117,0.552-0.148,0.747c-0.031,0.194-0.046,0.357-0.046,0.487c0,0.223,0.021,0.408,0.064,0.557
		s0.101,0.268,0.172,0.357c0.071,0.09,0.151,0.153,0.241,0.19s0.184,0.056,0.283,0.056c0.278,0,0.565-0.062,0.862-0.186
		c0.297-0.124,0.569-0.263,0.816-0.417c0.291-0.179,0.575-0.383,0.854-0.612l-0.139,2.171c-0.161,0.105-0.344,0.223-0.548,0.353
		s-0.422,0.252-0.653,0.367c-0.232,0.114-0.474,0.21-0.724,0.287c-0.251,0.078-0.506,0.116-0.766,0.116
		c-0.464,0-0.839-0.094-1.123-0.283c-0.284-0.188-0.51-0.436-0.677-0.742c-0.167-0.306-0.291-0.649-0.371-1.029
		c-0.081-0.381-0.146-0.766-0.195-1.155h-0.148l-1.66,4.629c-0.087,0.241-0.169,0.441-0.246,0.598
		c-0.077,0.158-0.156,0.287-0.236,0.385c-0.081,0.099-0.167,0.168-0.26,0.208c-0.093,0.041-0.195,0.061-0.307,0.061
		c-0.254,0-0.458-0.054-0.612-0.162c-0.154-0.108-0.273-0.254-0.356-0.437c-0.084-0.182-0.14-0.39-0.167-0.621
		C95.092,29.523,95.078,29.284,95.078,29.036z"/>
	<path style="fill:#FFFFFF;" d="M108.716,28.999c-0.223,0.204-0.5,0.422-0.83,0.654c-0.331,0.232-0.688,0.445-1.072,0.641
		c-0.384,0.194-0.774,0.357-1.173,0.487c-0.399,0.13-0.778,0.195-1.137,0.195c-0.322,0-0.593-0.045-0.812-0.135
		c-0.22-0.089-0.398-0.214-0.534-0.375c-0.136-0.161-0.233-0.357-0.292-0.589c-0.059-0.231-0.088-0.487-0.088-0.765
		c0-0.39,0.043-0.844,0.13-1.364c0.178-1.075,0.293-1.678,0.344-1.811c0.084-0.264,0.253-0.849,0.506-1.755
		c0.234-0.739,0.38-1.22,0.435-1.443c0.03-0.156,0.115-0.297,0.255-0.422c0.128-0.112,0.272-0.205,0.434-0.277
		c0.161-0.072,0.328-0.125,0.501-0.159c0.173-0.035,0.33-0.052,0.47-0.052c0.255,0,0.428,0.048,0.52,0.144
		c0.091,0.096,0.137,0.225,0.137,0.385c0,0.136-0.032,0.328-0.096,0.577s-0.136,0.532-0.217,0.85s-0.202,0.727-0.361,1.226
		s-0.268,0.925-0.326,1.278s-0.133,0.703-0.222,1.05s-0.133,0.664-0.133,0.948c0,0.278,0.03,0.499,0.093,0.663
		c0.062,0.164,0.188,0.246,0.38,0.246c0.223,0,0.47-0.077,0.742-0.232c0.272-0.154,0.548-0.342,0.826-0.561
		c0.278-0.22,0.55-0.447,0.816-0.682c0.266-0.235,0.501-0.436,0.705-0.603V28.999z M104.568,19.264c0-0.144,0.031-0.306,0.093-0.487
		s0.163-0.352,0.302-0.511c0.14-0.159,0.325-0.293,0.557-0.402c0.232-0.109,0.521-0.164,0.867-0.164
		c0.217,0,0.421,0.025,0.612,0.075c0.191,0.05,0.358,0.127,0.501,0.229c0.143,0.103,0.256,0.239,0.339,0.408
		c0.084,0.168,0.125,0.368,0.125,0.599c0,0.212-0.034,0.418-0.102,0.618c-0.068,0.2-0.177,0.377-0.325,0.534
		s-0.335,0.283-0.561,0.379c-0.227,0.097-0.497,0.145-0.812,0.145c-0.544,0-0.946-0.129-1.206-0.389
		C104.698,20.039,104.568,19.694,104.568,19.264z"/>
	<path style="fill:#FFFFFF;" d="M108.716,26.778c0,0.184-0.004,0.363-0.01,0.538c-0.006,0.174-0.009,0.337-0.009,0.49
		s0.006,0.29,0.019,0.414c0.012,0.124,0.038,0.23,0.079,0.318c0.04,0.089,0.096,0.159,0.167,0.209
		c0.07,0.051,0.168,0.076,0.292,0.076c0.067,0,0.144-0.041,0.228-0.124c0.083-0.083,0.179-0.2,0.287-0.352s0.23-0.333,0.366-0.542
		s0.291-0.438,0.464-0.685c-0.062-0.368-0.25-0.881-0.565-1.541c-0.495-1.028-0.863-1.912-1.104-2.654
		c-0.013-0.038-0.019-0.07-0.019-0.095c0-0.114,0.047-0.235,0.14-0.362c0.093-0.126,0.212-0.244,0.357-0.352
		c0.145-0.108,0.303-0.198,0.473-0.271c0.17-0.073,0.332-0.109,0.487-0.109c0.123,0,0.229,0.022,0.315,0.066
		c0.104,0.051,0.173,0.118,0.204,0.2c0.371,1.084,0.479,1.351,0.324,0.799c-0.074-0.253,0.281,0.479,1.067,2.198
		c0.049-0.159,0.584-0.688,1.604-1.589c0.384-0.342,0.808-0.672,1.271-0.989c0.154-0.108,0.3-0.184,0.436-0.229
		c0.136-0.044,0.26-0.066,0.371-0.066c0.143,0,0.268,0.03,0.376,0.09c0.108,0.061,0.199,0.141,0.273,0.243s0.13,0.219,0.167,0.352
		s0.056,0.27,0.056,0.409c0,0.203-0.04,0.398-0.12,0.585c-0.081,0.187-0.204,0.334-0.371,0.442c-0.532,0.342-0.99,0.691-1.373,1.046
		c-0.606,0.558-1.2,1.148-1.781,1.77c0.136,0.253,0.273,0.491,0.413,0.715c0.139,0.224,0.273,0.419,0.403,0.586
		s0.255,0.297,0.376,0.392c0.12,0.095,0.232,0.142,0.338,0.142c0.136,0,0.302-0.032,0.497-0.096
		c0.194-0.063,0.401-0.149,0.621-0.256s0.443-0.229,0.673-0.365c0.229-0.136,0.446-0.279,0.654-0.43
		c0.207-0.15,0.396-0.299,0.565-0.447c0.17-0.147,0.308-0.285,0.413-0.412c0,0.209,0.001,0.399,0.005,0.571
		c0.003,0.171,0.004,0.334,0.004,0.49c0,0.156,0.002,0.304,0.005,0.444c0.003,0.141,0.005,0.298,0.005,0.471
		c-0.204,0.198-0.468,0.419-0.789,0.662s-0.679,0.471-1.071,0.685c-0.393,0.213-0.812,0.393-1.257,0.54s-0.891,0.221-1.336,0.221
		c-0.254,0-0.574-0.166-0.96-0.498c-0.387-0.333-0.803-0.87-1.248-1.612c-0.267,0.299-0.52,0.576-0.761,0.831
		s-0.468,0.477-0.678,0.669c-0.21,0.191-0.408,0.341-0.594,0.449s-0.355,0.162-0.51,0.162c-0.31,0-0.563-0.075-0.761-0.225
		c-0.198-0.15-0.357-0.342-0.478-0.575c-0.121-0.233-0.208-0.487-0.26-0.761c-0.053-0.274-0.086-0.538-0.098-0.792L108.716,26.778z"
		/>
</g>
</svg>
