<?xml version="1.0" encoding="iso-8859-1"?>
<!-- Generator: Adobe Illustrator 19.1.0, SVG Export Plug-In . SVG Version: 6.00 Build 0)  -->
<svg version="1.1" id="Layer_1" xmlns="http://www.w3.org/2000/svg" xmlns:xlink="http://www.w3.org/1999/xlink" x="0px" y="0px"
	 viewBox="0 0 122.75 42.75" style="enable-background:new 0 0 122.75 42.75;" xml:space="preserve">
<g>
	<circle style="fill:#BDC3C7;" cx="8.094" cy="27.75" r="0.812"/>
	<circle style="fill:#BDC3C7;" cx="7.748" cy="26.291" r="0.466"/>
	<circle style="fill:#FFFFFF;" cx="9.064" cy="24.483" r="1.479"/>
	<circle style="fill:#BDC3C7;" cx="13.861" cy="26.179" r="1.479"/>
	<circle style="fill:#FFFFFF;" cx="8.811" cy="26.543" r="0.364"/>
	<circle style="fill:#FFFFFF;" cx="11.742" cy="23.319" r="0.979"/>
	<circle style="fill:#BDC3C7;" cx="29.206" cy="25.243" r="1.516"/>
	<circle style="fill:#BDC3C7;" cx="30.722" cy="27.27" r="0.466"/>
	<circle style="fill:#BDC3C7;" cx="11.742" cy="26.804" r="0.46"/>
	<circle style="fill:#BDC3C7;" cx="27.039" cy="26.804" r="0.625"/>
	<circle style="fill:#FFFFFF;" cx="9.694" cy="21.237" r="1.479"/>
	<circle style="fill:#FFFFFF;" cx="10.006" cy="18.512" r="0.943"/>
	<circle style="fill:#BDC3C7;" cx="11.283" cy="25.461" r="0.74"/>
	<circle style="fill:#FFFFFF;" cx="14.508" cy="23.004" r="1.479"/>
	<circle style="fill:#FFFFFF;" cx="19.63" cy="11.783" r="1.479"/>
	<circle style="fill:#FFFFFF;" cx="24.263" cy="12.276" r="1.479"/>
	<circle style="fill:#FFFFFF;" cx="18.151" cy="9.579" r="0.74"/>
	<circle style="fill:#FFFFFF;" cx="19.988" cy="9.579" r="0.466"/>
	<circle style="fill:#FFFFFF;" cx="22.089" cy="10.303" r="0.979"/>
	<circle style="fill:#BDC3C7;" cx="25.04" cy="26.441" r="0.979"/>
	<circle style="fill:#BDC3C7;" cx="10.043" cy="27.27" r="0.979"/>
	<circle style="fill:#FFFFFF;" cx="16.29" cy="10.867" r="0.751"/>
	<circle style="fill:#FFFFFF;" cx="12.095" cy="20.977" r="0.812"/>
	<circle style="fill:#FFFFFF;" cx="11.749" cy="19.518" r="0.466"/>
	<circle style="fill:#FFFFFF;" cx="13.064" cy="17.71" r="1.479"/>
	<circle style="fill:#FFFFFF;" cx="16.745" cy="20.744" r="1.479"/>
	<circle style="fill:#FFFFFF;" cx="15.564" cy="16.368" r="0.801"/>
	<circle style="fill:#FFFFFF;" cx="13.695" cy="20.977" r="0.46"/>
	<circle style="fill:#FFFFFF;" cx="13.235" cy="14.464" r="1.479"/>
	<circle style="fill:#FFFFFF;" cx="14.007" cy="11.739" r="0.943"/>
	<circle style="fill:#FFFFFF;" cx="14.508" cy="19.757" r="0.74"/>
	<circle style="fill:#FFFFFF;" cx="17.847" cy="17.877" r="0.931"/>
	<circle style="fill:#FFFFFF;" cx="10.543" cy="16.231" r="0.979"/>
	<circle style="fill:#FFFFFF;" cx="15.655" cy="18.211" r="0.634"/>
	<circle style="fill:#FFFFFF;" cx="15.877" cy="12.753" r="0.758"/>
	<circle style="fill:#FFFFFF;" cx="21.851" cy="12.276" r="0.466"/>
	<circle style="fill:#BDC3C7;" cx="16.018" cy="26.804" r="0.625"/>
	<circle style="fill:#FFFFFF;" cx="16.635" cy="24.974" r="0.979"/>
	<circle style="fill:#FFFFFF;" cx="17.411" cy="11.995" r="0.233"/>
	<circle style="fill:#FFFFFF;" cx="26.019" cy="23.726" r="1.516"/>
	<circle style="fill:#FFFFFF;" cx="18.151" cy="14.984" r="1.596"/>
	<circle style="fill:#FFFFFF;" cx="15.655" cy="14.464" r="0.233"/>
	<circle style="fill:#FFFFFF;" cx="28.669" cy="22.477" r="0.979"/>
	<circle style="fill:#FFFFFF;" cx="23.595" cy="24.974" r="0.812"/>
	<circle style="fill:#FFFFFF;" cx="18.594" cy="23.004" r="0.979"/>
	<circle style="fill:#FFFFFF;" cx="20.455" cy="19.984" r="1.773"/>
	<circle style="fill:#FFFFFF;" cx="23.595" cy="15.713" r="1.479"/>
	<circle style="fill:#BDC3C7;" cx="18.891" cy="25.962" r="1.013"/>
	<circle style="fill:#FFFFFF;" cx="21.11" cy="14.233" r="0.979"/>
	<circle style="fill:#FFFFFF;" cx="26.414" cy="14.464" r="0.979"/>
	<circle style="fill:#FFFFFF;" cx="20.726" cy="16.947" r="0.979"/>
	<circle style="fill:#FFFFFF;" cx="26.866" cy="17.365" r="1.652"/>
	<circle style="fill:#BDC3C7;" cx="21.384" cy="26.201" r="0.979"/>
	<circle style="fill:#FFFFFF;" cx="21.384" cy="23.457" r="1.236"/>
	<circle style="fill:#FFFFFF;" cx="22.364" cy="17.926" r="0.634"/>
	<circle style="fill:#FFFFFF;" cx="23.595" cy="23.187" r="0.71"/>
	<circle style="fill:#BDC3C7;" cx="23.197" cy="26.885" r="0.581"/>
	<circle style="fill:#FFFFFF;" cx="19.522" cy="24.299" r="0.246"/>
	<circle style="fill:#FFFFFF;" cx="24.146" cy="18.297" r="0.667"/>
	<circle style="fill:#FFFFFF;" cx="28.669" cy="19.944" r="0.979"/>
	<circle style="fill:#FFFFFF;" cx="23.986" cy="20.654" r="1.37"/>
	<circle style="fill:#FFFFFF;" cx="26.414" cy="19.944" r="0.667"/>
	<circle style="fill:#FFFFFF;" cx="27.039" cy="21.437" r="0.667"/>
	<g>
		<circle style="fill:#E57E25;" cx="7.748" cy="13.927" r="0.943"/>
		<circle style="fill:#E57E25;" cx="5.868" cy="12.294" r="0.233"/>
		<circle style="fill:#E57E25;" cx="7.04" cy="11.995" r="0.701"/>
		<circle style="fill:#E57E25;" cx="6.811" cy="10.61" r="0.471"/>
		<circle style="fill:#E57E25;" cx="5.868" cy="11.338" r="0.471"/>
		<circle style="fill:#E57E25;" cx="5.706" cy="10.139" r="0.471"/>
		<circle style="fill:#E57E25;" cx="8.691" cy="15.213" r="0.471"/>
		<circle style="fill:#E57E25;" cx="6.339" cy="13.211" r="0.471"/>
		<circle style="fill:#E57E25;" cx="6.448" cy="9.667" r="0.271"/>
		<circle style="fill:#E57E25;" cx="7.974" cy="12.527" r="0.233"/>
		<circle style="fill:#E57E25;" cx="7.452" cy="15.684" r="0.647"/>
		<circle style="fill:#E57E25;" cx="8.448" cy="16.231" r="0.271"/>
		<circle style="fill:#E57E25;" cx="7.04" cy="16.947" r="0.471"/>
		<circle style="fill:#E57E25;" cx="6.806" cy="14.87" r="0.251"/>
		<circle style="fill:#E57E25;" cx="8.094" cy="17.21" r="0.471"/>
		<circle style="fill:#E57E25;" cx="7.592" cy="18.717" r="0.628"/>
		<circle style="fill:#E57E25;" cx="6.339" cy="14.233" r="0.251"/>
		<circle style="fill:#E57E25;" cx="5.629" cy="8.607" r="0.703"/>
		<circle style="fill:#E57E25;" cx="5.205" cy="7.231" r="0.459"/>
		<circle style="fill:#E57E25;" cx="4.855" cy="6.086" r="0.378"/>
		<circle style="fill:#E57E25;" cx="4.855" cy="5.255" r="0.233"/>
		<circle style="fill:#E57E25;" cx="5.205" cy="4.364" r="0.326"/>
		<circle style="fill:#E57E25;" cx="5.397" cy="3.454" r="0.251"/>
		<circle style="fill:#E57E25;" cx="5.534" cy="2.676" r="0.137"/>
		<circle style="fill:#E57E25;" cx="5.397" cy="5.022" r="0.137"/>
		<circle style="fill:#E57E25;" cx="5.397" cy="5.488" r="0.201"/>
	</g>
	<g>
		<circle style="fill:#E57E25;" cx="30.383" cy="13.853" r="0.943"/>
		<circle style="fill:#E57E25;" cx="32.264" cy="12.219" r="0.233"/>
		<circle style="fill:#E57E25;" cx="31.091" cy="11.92" r="0.701"/>
		<circle style="fill:#E57E25;" cx="31.321" cy="10.535" r="0.471"/>
		<circle style="fill:#E57E25;" cx="32.264" cy="11.263" r="0.471"/>
		<circle style="fill:#E57E25;" cx="32.426" cy="10.064" r="0.471"/>
		<circle style="fill:#E57E25;" cx="29.44" cy="15.138" r="0.471"/>
		<circle style="fill:#E57E25;" cx="31.792" cy="13.136" r="0.471"/>
		<circle style="fill:#E57E25;" cx="31.683" cy="9.593" r="0.271"/>
		<circle style="fill:#E57E25;" cx="30.158" cy="12.453" r="0.233"/>
		<circle style="fill:#E57E25;" cx="30.679" cy="15.609" r="0.647"/>
		<circle style="fill:#E57E25;" cx="29.684" cy="16.156" r="0.271"/>
		<circle style="fill:#E57E25;" cx="31.091" cy="16.872" r="0.471"/>
		<circle style="fill:#E57E25;" cx="31.326" cy="14.795" r="0.251"/>
		<circle style="fill:#E57E25;" cx="30.037" cy="17.135" r="0.471"/>
		<circle style="fill:#E57E25;" cx="30.539" cy="18.642" r="0.628"/>
		<circle style="fill:#E57E25;" cx="31.792" cy="14.159" r="0.251"/>
		<circle style="fill:#E57E25;" cx="32.503" cy="8.532" r="0.703"/>
		<circle style="fill:#E57E25;" cx="32.926" cy="7.156" r="0.459"/>
		<circle style="fill:#E57E25;" cx="33.277" cy="6.011" r="0.378"/>
		<circle style="fill:#E57E25;" cx="33.277" cy="5.181" r="0.233"/>
		<circle style="fill:#E57E25;" cx="32.926" cy="4.289" r="0.326"/>
		<circle style="fill:#E57E25;" cx="32.735" cy="3.379" r="0.251"/>
		<circle style="fill:#E57E25;" cx="32.597" cy="2.601" r="0.137"/>
		<circle style="fill:#E57E25;" cx="32.735" cy="4.947" r="0.137"/>
		<circle style="fill:#E57E25;" cx="32.735" cy="5.414" r="0.201"/>
	</g>
	<circle style="fill:#E57E25;" cx="26.424" cy="34.878" r="0.634"/>
	<circle style="fill:#E57E25;" cx="25.295" cy="34.241" r="0.317"/>
	<circle style="fill:#E57E25;" cx="27.462" cy="36.149" r="0.634"/>
	<circle style="fill:#E57E25;" cx="25.875" cy="36.225" r="0.634"/>
	<circle style="fill:#E57E25;" cx="23.62" cy="33.127" r="0.317"/>
	<circle style="fill:#E57E25;" cx="23.851" cy="34.399" r="0.634"/>
	<circle style="fill:#E57E25;" cx="22.638" cy="32.807" r="0.317"/>
	<circle style="fill:#E57E25;" cx="22.001" cy="33.757" r="0.634"/>
	<circle style="fill:#E57E25;" cx="25.131" cy="35.152" r="0.395"/>
	<circle style="fill:#E57E25;" cx="20.501" cy="33.119" r="0.634"/>
	<circle style="fill:#E57E25;" cx="26.772" cy="37.02" r="0.317"/>
	<circle style="fill:#E57E25;" cx="11.3" cy="34.806" r="0.317"/>
	<circle style="fill:#E57E25;" cx="12.658" cy="34.968" r="0.634"/>
	<circle style="fill:#E57E25;" cx="13.789" cy="34.336" r="0.317"/>
	<circle style="fill:#E57E25;" cx="11.614" cy="36.235" r="0.634"/>
	<circle style="fill:#E57E25;" cx="13.201" cy="36.318" r="0.634"/>
	<circle style="fill:#E57E25;" cx="15.47" cy="33.23" r="0.317"/>
	<circle style="fill:#E57E25;" cx="15.233" cy="34.501" r="0.634"/>
	<circle style="fill:#E57E25;" cx="16.921" cy="33.111" r="0.317"/>
	<circle style="fill:#E57E25;" cx="16.901" cy="34.222" r="0.634"/>
	<circle style="fill:#E57E25;" cx="13.949" cy="35.249" r="0.395"/>
	<circle style="fill:#E57E25;" cx="18.588" cy="33.237" r="0.634"/>
	<circle style="fill:#E57E25;" cx="12.3" cy="37.109" r="0.317"/>
	<circle style="fill:#E57E25;" cx="14.786" cy="36.161" r="0.634"/>
	<circle style="fill:#E57E25;" cx="24.322" cy="36.142" r="0.634"/>
	<circle style="fill:#E57E25;" cx="25.872" cy="37.457" r="0.395"/>
	<circle style="fill:#E57E25;" cx="22.633" cy="34.71" r="0.317"/>
	<circle style="fill:#E57E25;" cx="11.281" cy="37.818" r="0.634"/>
	<circle style="fill:#E57E25;" cx="27.051" cy="38.094" r="0.634"/>
</g>
</svg>
