<?xml version="1.0" encoding="iso-8859-1"?>
<!-- Generator: Adobe Illustrator 19.1.0, SVG Export Plug-In . SVG Version: 6.00 Build 0)  -->
<svg version="1.1" id="Layer_1" xmlns="http://www.w3.org/2000/svg" xmlns:xlink="http://www.w3.org/1999/xlink" x="0px" y="0px"
	 viewBox="0 0 30 30" style="enable-background:new 0 0 30 30;" xml:space="preserve">
<g>
	<path style="fill:#E57E25;" d="M21.212,17.043c0,3.303-2.678,5.98-5.982,5.98c-3.303,0-5.982-2.678-5.982-5.98
		C9.247,13.739,21.212,13.739,21.212,17.043z"/>
	<ellipse style="fill:#D15627;" cx="15.082" cy="16.652" rx="5.825" ry="2.072"/>
	<path style="fill:#FFFFFF;" d="M18.87,9.175V4.493h0.003V2.221h-1.65v2.273h0.005v5.225c0,0.34,0.208,0.645,0.524,0.768
		c2.896,1.119,4.77,3.848,4.77,6.947c0,4.111-3.346,7.457-7.457,7.457c-4.111,0-7.459-3.346-7.459-7.457
		c0-3.092,1.952-5.898,4.857-6.982c0.322-0.119,0.533-0.425,0.533-0.768V2.262h-1.641v6.871c-3.248,1.454-5.393,4.719-5.393,8.301
		c0,5.018,4.084,9.102,9.101,9.102c5.018,0,9.099-4.084,9.099-9.102C24.164,13.841,22.104,10.656,18.87,9.175z"/>
	<path style="fill:#FFFFFF;" d="M12.329,2.221H11.75h-1.042c-0.344,0-0.623,0.279-0.623,0.623c0,0.344,0.279,0.623,0.623,0.623
		h1.042h0.579h0.668V2.221H12.329z"/>
	<path style="fill:#FFFFFF;" d="M17.893,2.221h0.58h1.042c0.344,0,0.623,0.279,0.623,0.623c0,0.344-0.279,0.623-0.623,0.623h-1.042
		h-0.58h-0.667V2.221H17.893z"/>
</g>
</svg>
